<svg width="145" height="151" viewBox="0 0 145 151" fill="none" xmlns="http://www.w3.org/2000/svg">
<path d="M0 4C0 1.79087 1.79086 0 4 0H141C143.209 0 145 1.79086 145 4V147C145 149.209 143.209 151 141 151H4C1.79086 151 0 149.209 0 147V4Z" fill="#9CDAA0"/>
<g clip-path="url(#clip0_216_363)">
<path d="M32 74.5L38.0117 26.8516C38.4336 23.5078 41.3023 21 44.7195 21H80.2836C83.4477 21 86 23.5287 86 26.6635C86 27.3322 85.8734 28.0219 85.6414 28.6488L75.875 54.4375H105.259C109.52 54.4375 113 57.8648 113 62.1072C113 63.6537 112.536 65.1584 111.65 66.4332L71.1078 125.158C69.8633 126.955 67.8172 128.021 65.6445 128.021H65.0328C61.7211 128.021 59.0211 125.346 59.0211 122.065C59.0211 121.584 59.0844 121.104 59.2109 120.623L69.125 81.1875H38.75C35.0164 81.1875 32 78.199 32 74.5Z" fill="black"/>
</g>
<defs>
<clipPath id="clip0_216_363">
<rect width="81" height="107" fill="white" transform="translate(32 21)"/>
</clipPath>
</defs>
</svg>
