<svg width="37" height="37" viewBox="0 0 37 37" fill="none" xmlns="http://www.w3.org/2000/svg">
<path d="M0.25 4C0.25 1.92893 1.92893 0.25 4 0.25H33C35.0711 0.25 36.75 1.92893 36.75 4V33C36.75 35.0711 35.0711 36.75 33 36.75H4C1.92893 36.75 0.25 35.0711 0.25 33V4Z" fill="#9CDAA0" stroke="black" stroke-width="0.5"/>
<path d="M20.6086 10.067C20.6086 9.42735 20.0694 8.91058 19.402 8.91058C18.7345 8.91058 18.1953 9.42735 18.1953 10.067V18.8375L15.4275 16.1851C14.9561 15.7333 14.1906 15.7333 13.7193 16.1851C13.2479 16.6368 13.2479 17.3704 13.7193 17.8221L18.546 22.4477C19.0173 22.8994 19.7828 22.8994 20.2542 22.4477L25.0809 17.8221C25.5522 17.3704 25.5522 16.6368 25.0809 16.1851C24.6095 15.7333 23.844 15.7333 23.3727 16.1851L20.6086 18.8375V10.067ZM12.1619 21.631C10.8308 21.631 9.74854 22.6681 9.74854 23.9438V25.1002C9.74854 26.3758 10.8308 27.413 12.1619 27.413H26.642C27.9731 27.413 29.0554 26.3758 29.0554 25.1002V23.9438C29.0554 22.6681 27.9731 21.631 26.642 21.631H22.8146L21.1064 23.268C20.1637 24.1714 18.6365 24.1714 17.6938 23.268L15.9893 21.631H12.1619ZM26.0387 23.6547C26.2787 23.6547 26.5089 23.746 26.6786 23.9087C26.8483 24.0713 26.9437 24.2919 26.9437 24.522C26.9437 24.752 26.8483 24.9726 26.6786 25.1352C26.5089 25.2979 26.2787 25.3893 26.0387 25.3893C25.7987 25.3893 25.5685 25.2979 25.3987 25.1352C25.229 24.9726 25.1337 24.752 25.1337 24.522C25.1337 24.2919 25.229 24.0713 25.3987 23.9087C25.5685 23.746 25.7987 23.6547 26.0387 23.6547Z" fill="black"/>
</svg>
