<svg width="89" height="118" viewBox="0 0 89 118" fill="none" xmlns="http://www.w3.org/2000/svg">
<g clip-path="url(#clip0_183_361)">
<path d="M0 59L6.60547 6.45312C7.06901 2.76562 10.2211 0 13.9758 0H53.0523C56.5289 0 59.3333 2.78867 59.3333 6.2457C59.3333 6.9832 59.1943 7.74375 58.9393 8.43516L48.2083 36.875H80.494C85.1758 36.875 89 40.6547 89 45.3332C89 47.0387 88.4901 48.698 87.5167 50.1039L42.9703 114.866C41.6029 116.848 39.3547 118.023 36.9674 118.023H36.2953C32.6565 118.023 29.6898 115.073 29.6898 111.455C29.6898 110.925 29.7594 110.395 29.8984 109.864L40.7917 66.375H7.41667C3.31432 66.375 0 63.0793 0 59Z" fill="black"/>
</g>
<defs>
<clipPath id="clip0_183_361">
<rect width="89" height="118" fill="white"/>
</clipPath>
</defs>
</svg>
