<svg width="38" height="39" viewBox="0 0 38 39" fill="none" xmlns="http://www.w3.org/2000/svg">
<path d="M0 4C0 1.79086 1.79086 0 4 0H33.6637C35.8729 0 37.6637 1.79086 37.6637 4V35C37.6637 37.2091 35.8729 39 33.6637 39H4C1.79086 39 0 37.2091 0 35V4Z" fill="#9CDAA0"/>
<path d="M20.8573 12.4084C20.8573 11.6543 20.2508 11.045 19.5001 11.045C18.7495 11.045 18.143 11.6543 18.143 12.4084V18.5435H12.0359C11.2852 18.5435 10.6787 19.1528 10.6787 19.9069C10.6787 20.661 11.2852 21.2702 12.0359 21.2702H18.143V27.4053C18.143 28.1595 18.7495 28.7687 19.5001 28.7687C20.2508 28.7687 20.8573 28.1595 20.8573 27.4053V21.2702H26.9644C27.7151 21.2702 28.3216 20.661 28.3216 19.9069C28.3216 19.1528 27.7151 18.5435 26.9644 18.5435H20.8573V12.4084Z" fill="black"/>
</svg>
