<svg width="38" height="39" viewBox="0 0 38 39" fill="none" xmlns="http://www.w3.org/2000/svg">
<path d="M0 4C0 1.79086 1.79086 0 4 0H34C36.2091 0 38 1.79086 38 4V35C38 37.2091 36.2091 39 34 39H4C1.79086 39 0 37.2091 0 35V4Z" fill="#9CDAA0"/>
<path d="M21.5714 8.15625C21.5714 7.01543 20.6457 6.09375 19.4999 6.09375C18.3542 6.09375 17.4285 7.01543 17.4285 8.15625V17.4375H8.10707C6.96131 17.4375 6.03564 18.3592 6.03564 19.5C6.03564 20.6408 6.96131 21.5625 8.10707 21.5625H17.4285V30.8438C17.4285 31.9846 18.3542 32.9062 19.4999 32.9062C20.6457 32.9062 21.5714 31.9846 21.5714 30.8438V21.5625H30.8928C32.0385 21.5625 32.9642 20.6408 32.9642 19.5C32.9642 18.3592 32.0385 17.4375 30.8928 17.4375H21.5714V8.15625Z" fill="black"/>
</svg>
