<svg width="38" height="39" viewBox="0 0 38 39" fill="none" xmlns="http://www.w3.org/2000/svg">
<path d="M0 4C0 1.79086 1.79086 0 4 0H33.6637C35.8729 0 37.6637 1.79086 37.6637 4V35C37.6637 37.2091 35.8729 39 33.6637 39H4C1.79086 39 0 37.2091 0 35V4Z" fill="#9CDAA0"/>
<g clip-path="url(#clip0_183_442)">
<path d="M10.6198 8.09977C10.9961 7.9234 11.4388 7.98671 11.7531 8.26258L13.5417 9.82735L15.3302 8.26258C15.7286 7.91435 16.3174 7.91435 16.7115 8.26258L18.5 9.82735L20.2885 8.26258C20.687 7.91435 21.2758 7.91435 21.6698 8.26258L23.4583 9.82735L25.2469 8.26258C25.5612 7.98671 26.0039 7.9234 26.3802 8.09977C26.7565 8.27615 27 8.66056 27 9.08566V30.0698C27 30.4949 26.7565 30.8793 26.3802 31.0557C26.0039 31.2321 25.5612 31.1688 25.2469 30.8929L23.4583 29.3281L21.6698 30.8929C21.2714 31.2411 20.6826 31.2411 20.2885 30.8929L18.5 29.3281L16.7115 30.8929C16.313 31.2411 15.7242 31.2411 15.3302 30.8929L13.5417 29.3281L11.7531 30.8929C11.4388 31.1688 10.9961 31.2321 10.6198 31.0557C10.2435 30.8793 10 30.4949 10 30.0698V9.08566C10 8.66056 10.2435 8.27615 10.6198 8.09977ZM14.25 14.5126C13.8604 14.5126 13.5417 14.8382 13.5417 15.2362C13.5417 15.6342 13.8604 15.9598 14.25 15.9598H22.75C23.1396 15.9598 23.4583 15.6342 23.4583 15.2362C23.4583 14.8382 23.1396 14.5126 22.75 14.5126H14.25ZM13.5417 23.9193C13.5417 24.3173 13.8604 24.6429 14.25 24.6429H22.75C23.1396 24.6429 23.4583 24.3173 23.4583 23.9193C23.4583 23.5213 23.1396 23.1957 22.75 23.1957H14.25C13.8604 23.1957 13.5417 23.5213 13.5417 23.9193ZM14.25 18.8541C13.8604 18.8541 13.5417 19.1798 13.5417 19.5777C13.5417 19.9757 13.8604 20.3013 14.25 20.3013H22.75C23.1396 20.3013 23.4583 19.9757 23.4583 19.5777C23.4583 19.1798 23.1396 18.8541 22.75 18.8541H14.25Z" fill="black"/>
</g>
<defs>
<clipPath id="clip0_183_442">
<rect width="17" height="23.1549" fill="white" transform="translate(10 8)"/>
</clipPath>
</defs>
</svg>
