<svg width="38" height="39" viewBox="0 0 38 39" fill="none" xmlns="http://www.w3.org/2000/svg">
<path d="M0 4C0 1.79086 1.79086 0 4 0H33.6637C35.8729 0 37.6637 1.79086 37.6637 4V35C37.6637 37.2091 35.8729 39 33.6637 39H4C1.79086 39 0 37.2091 0 35V4Z" fill="#9CDAA0"/>
<g clip-path="url(#clip0_133_336)">
<path d="M9.64312 6.11618C10.0819 5.91052 10.5981 5.98435 10.9647 6.30603L13.0502 8.13064L15.1357 6.30603C15.6004 5.89997 16.2869 5.89997 16.7464 6.30603L18.8319 8.13064L20.9175 6.30603C21.3821 5.89997 22.0686 5.89997 22.5281 6.30603L24.6136 8.13064L26.6992 6.30603C27.0657 5.98435 27.5819 5.91052 28.0207 6.11618C28.4595 6.32185 28.7434 6.77009 28.7434 7.26579V31.7345C28.7434 32.2302 28.4595 32.6785 28.0207 32.8842C27.5819 33.0898 27.0657 33.016 26.6992 32.6943L24.6136 30.8697L22.5281 32.6943C22.0635 33.1004 21.3769 33.1004 20.9175 32.6943L18.8319 30.8697L16.7464 32.6943C16.2818 33.1004 15.5952 33.1004 15.1357 32.6943L13.0502 30.8697L10.9647 32.6943C10.5981 33.016 10.0819 33.0898 9.64312 32.8842C9.20433 32.6785 8.92041 32.2302 8.92041 31.7345V7.26579C8.92041 6.77009 9.20433 6.32185 9.64312 6.11618ZM13.8762 13.5939C13.4219 13.5939 13.0502 13.9736 13.0502 14.4377C13.0502 14.9017 13.4219 15.2814 13.8762 15.2814H23.7877C24.2419 15.2814 24.6136 14.9017 24.6136 14.4377C24.6136 13.9736 24.2419 13.5939 23.7877 13.5939H13.8762ZM13.0502 24.5627C13.0502 25.0267 13.4219 25.4064 13.8762 25.4064H23.7877C24.2419 25.4064 24.6136 25.0267 24.6136 24.5627C24.6136 24.0986 24.2419 23.7189 23.7877 23.7189H13.8762C13.4219 23.7189 13.0502 24.0986 13.0502 24.5627ZM13.8762 18.6564C13.4219 18.6564 13.0502 19.0361 13.0502 19.5002C13.0502 19.9642 13.4219 20.3439 13.8762 20.3439H23.7877C24.2419 20.3439 24.6136 19.9642 24.6136 19.5002C24.6136 19.0361 24.2419 18.6564 23.7877 18.6564H13.8762Z" fill="black"/>
</g>
<defs>
<clipPath id="clip0_133_336">
<rect width="19.823" height="27" fill="white" transform="translate(8.92041 6)"/>
</clipPath>
</defs>
</svg>
