<svg width="37" height="37" viewBox="0 0 37 37" fill="none" xmlns="http://www.w3.org/2000/svg">
<path d="M0.25 4C0.25 1.92893 1.92893 0.25 4 0.25H33C35.0711 0.25 36.75 1.92893 36.75 4V33C36.75 35.0711 35.0711 36.75 33 36.75H4C1.92893 36.75 0.25 35.0711 0.25 33V4Z" fill="#9CDAA0" stroke="black" stroke-width="0.5"/>
<g clip-path="url(#clip0_80_991)">
<path d="M20.2093 6.26302C20.2093 5.35699 19.4455 4.625 18.5001 4.625C17.5547 4.625 16.7908 5.35699 16.7908 6.26302V18.6864L12.8703 14.9292C12.2026 14.2893 11.1183 14.2893 10.4506 14.9292C9.78297 15.569 9.78297 16.6081 10.4506 17.248L17.2876 23.8001C17.9553 24.4399 19.0396 24.4399 19.7072 23.8001L26.5442 17.248C27.2119 16.6081 27.2119 15.569 26.5442 14.9292C25.8765 14.2893 24.7922 14.2893 24.1245 14.9292L20.2093 18.6864V6.26302ZM8.24465 22.6432C6.35915 22.6432 4.82617 24.1123 4.82617 25.9193V27.5573C4.82617 29.3642 6.35915 30.8333 8.24465 30.8333H28.7555C30.641 30.8333 32.174 29.3642 32.174 27.5573V25.9193C32.174 24.1123 30.641 22.6432 28.7555 22.6432H23.334L20.9144 24.9621C19.579 26.2418 17.4158 26.2418 16.0804 24.9621L13.6661 22.6432H8.24465ZM27.9009 25.5098C28.2409 25.5098 28.567 25.6392 28.8074 25.8696C29.0478 26.1 29.1828 26.4125 29.1828 26.7383C29.1828 27.0641 29.0478 27.3766 28.8074 27.607C28.567 27.8374 28.2409 27.9668 27.9009 27.9668C27.5609 27.9668 27.2348 27.8374 26.9944 27.607C26.754 27.3766 26.619 27.0641 26.619 26.7383C26.619 26.4125 26.754 26.1 26.9944 25.8696C27.2348 25.6392 27.5609 25.5098 27.9009 25.5098Z" fill="black"/>
</g>
<defs>
<clipPath id="clip0_80_991">
<rect width="27.3478" height="26.2083" fill="white" transform="translate(4.82617 4.625)"/>
</clipPath>
</defs>
</svg>
