<svg width="11" height="12" viewBox="0 0 11 12" fill="none" xmlns="http://www.w3.org/2000/svg">
<g clip-path="url(#clip0_148_416)">
<path d="M3.10408 0.414844C3.22806 0.159375 3.48291 0 3.76071 0H6.525C6.80281 0 7.05765 0.159375 7.18163 0.414844L7.34694 0.75H9.55102C9.9574 0.75 10.2857 1.08516 10.2857 1.5C10.2857 1.91484 9.9574 2.25 9.55102 2.25H0.734694C0.328316 2.25 0 1.91484 0 1.5C0 1.08516 0.328316 0.75 0.734694 0.75H2.93878L3.10408 0.414844ZM0.734694 3H9.55102V10.5C9.55102 11.3273 8.89209 12 8.08163 12H2.20408C1.39362 12 0.734694 11.3273 0.734694 10.5V3ZM2.93878 4.5C2.73673 4.5 2.57143 4.66875 2.57143 4.875V10.125C2.57143 10.3313 2.73673 10.5 2.93878 10.5C3.14082 10.5 3.30612 10.3313 3.30612 10.125V4.875C3.30612 4.66875 3.14082 4.5 2.93878 4.5ZM5.14286 4.5C4.94082 4.5 4.77551 4.66875 4.77551 4.875V10.125C4.77551 10.3313 4.94082 10.5 5.14286 10.5C5.3449 10.5 5.5102 10.3313 5.5102 10.125V4.875C5.5102 4.66875 5.3449 4.5 5.14286 4.5ZM7.34694 4.5C7.1449 4.5 6.97959 4.66875 6.97959 4.875V10.125C6.97959 10.3313 7.1449 10.5 7.34694 10.5C7.54898 10.5 7.71429 10.3313 7.71429 10.125V4.875C7.71429 4.66875 7.54898 4.5 7.34694 4.5Z" fill="black"/>
</g>
<defs>
<clipPath id="clip0_148_416">
<rect width="10.2857" height="12" fill="white"/>
</clipPath>
</defs>
</svg>
