<svg width="22" height="22" viewBox="0 0 22 22" fill="none" xmlns="http://www.w3.org/2000/svg">
<g clip-path="url(#clip0_150_665)">
<path d="M13.7889 6.01041C14.18 5.61929 14.812 5.61929 15.2031 6.01041C15.5942 6.40153 15.5942 7.0335 15.2031 7.42462L12.0211 10.6066L15.2031 13.7886C15.5942 14.1797 15.5942 14.8117 15.2031 15.2028C14.812 15.5939 14.18 15.5939 13.7889 15.2028L10.6069 12.0208L7.42495 15.2028C7.03383 15.5939 6.40185 15.5939 6.01073 15.2028C5.61962 14.8117 5.61962 14.1797 6.01073 13.7886L9.19271 10.6066L6.01073 7.42462C5.61962 7.0335 5.61962 6.40153 6.01073 6.01041C6.40185 5.61929 7.03383 5.61929 7.42495 6.01041L10.6069 9.19239L13.7889 6.01041Z" fill="black"/>
</g>
<defs>
<clipPath id="clip0_150_665">
<rect width="14" height="16" fill="white" transform="matrix(-0.707107 -0.707107 -0.707107 0.707107 21.2134 9.89949)"/>
</clipPath>
</defs>
</svg>
